<svg width="216" height="158" viewBox="0 0 216 158" fill="none" xmlns="http://www.w3.org/2000/svg">
<g id="undraw_schedule_meeting_52nu 1" clip-path="url(#clip0_2317_3612)">
<path id="Vector" d="M131.239 74.2989C130.572 74.2979 129.931 74.0437 129.445 73.5879C128.96 73.1321 128.665 72.5088 128.621 71.844L128.232 65.8925C128.186 65.1973 128.419 64.5126 128.878 63.9888C129.337 63.4651 129.986 63.1453 130.681 63.0997L177.308 60.0461C178.792 59.9501 180.253 60.4471 181.371 61.4279C182.488 62.4087 183.17 63.7931 183.267 65.2767C183.365 66.7604 182.869 68.2219 181.889 69.3401C180.909 70.4582 179.525 71.1415 178.041 71.2398L131.414 74.2932C131.355 74.2969 131.297 74.2988 131.239 74.2989Z" fill="#47B65C"/>
<path id="Vector_2" d="M140.433 75.0662C139.753 75.0651 139.101 74.8012 138.612 74.3298C138.123 73.8585 137.835 73.2162 137.809 72.5374L137.477 63.6482C137.464 63.3035 137.519 62.9597 137.639 62.6363C137.759 62.3129 137.941 62.0163 138.176 61.7635C138.411 61.5107 138.693 61.3065 139.006 61.1628C139.32 61.019 139.659 60.9384 140.003 60.9255L178.346 59.4924C179.042 59.4664 179.72 59.7181 180.231 60.1919C180.742 60.6658 181.043 61.3231 181.069 62.0192L181.401 70.9085C181.414 71.2531 181.359 71.597 181.239 71.9204C181.119 72.2437 180.937 72.5403 180.702 72.7932C180.467 73.046 180.185 73.2501 179.872 73.3939C179.558 73.5377 179.219 73.6183 178.875 73.6311L140.532 75.0642C140.499 75.0656 140.465 75.0662 140.433 75.0662Z" fill="#227CBF"/>
<path id="Vector_3" d="M185.364 157.009H179.4C178.704 157.008 178.036 156.731 177.544 156.238C177.051 155.746 176.774 155.078 176.773 154.382V104.673C176.774 103.976 177.051 103.309 177.544 102.816C178.036 102.324 178.704 102.047 179.4 102.046H185.364C186.061 102.047 186.728 102.324 187.221 102.816C187.713 103.309 187.99 103.976 187.991 104.673V154.382C187.99 155.078 187.713 155.746 187.221 156.238C186.728 156.731 186.061 157.008 185.364 157.009Z" fill="#227CBF"/>
<path id="Vector_4" d="M170.39 157.009H164.425C163.729 157.008 163.061 156.731 162.569 156.238C162.076 155.746 161.799 155.078 161.799 154.382V104.673C161.799 103.976 162.076 103.309 162.569 102.816C163.061 102.324 163.729 102.047 164.425 102.046H170.39C171.086 102.047 171.754 102.324 172.246 102.816C172.738 103.309 173.015 103.976 173.016 104.673V154.382C173.015 155.078 172.738 155.746 172.246 156.238C171.754 156.731 171.086 157.008 170.39 157.009Z" fill="#227CBF"/>
<path id="Vector_5" d="M176.306 50.1694C187.688 50.1694 196.914 40.9425 196.914 29.5606C196.914 18.1788 187.688 8.9519 176.306 8.9519C164.924 8.9519 155.697 18.1788 155.697 29.5606C155.697 40.9425 164.924 50.1694 176.306 50.1694Z" fill="#47B65C"/>
<path id="Vector_6" d="M165.15 36.5971C164.487 36.3792 163.879 36.022 163.366 35.5494C163.025 35.2119 162.763 34.8042 162.597 34.3547C162.431 33.9052 162.366 33.4249 162.405 32.9474C162.426 32.6072 162.526 32.2766 162.697 31.9814C162.867 31.6862 163.104 31.4344 163.388 31.2457C164.125 30.773 165.11 30.7716 166.114 31.2139L166.076 23.1685L166.884 23.1647L166.929 32.6228L166.306 32.2311C165.584 31.7777 164.553 31.4585 163.824 31.926C163.644 32.0496 163.495 32.213 163.388 32.4035C163.282 32.5941 163.22 32.8067 163.209 33.0247C163.182 33.3804 163.232 33.7378 163.355 34.0726C163.478 34.4074 163.672 34.7117 163.924 34.9648C164.816 35.8172 166.118 36.0838 167.603 36.322L167.475 37.1199C166.686 37.0154 165.908 36.8404 165.15 36.5971Z" fill="#227CBF"/>
<path id="Vector_7" d="M157.745 22.763L157.64 23.5641L161.955 24.134L162.061 23.3329L157.745 22.763Z" fill="#227CBF"/>
<path id="Vector_8" d="M171.366 24.5606L171.26 25.3617L175.576 25.9316L175.681 25.1305L171.366 24.5606Z" fill="#227CBF"/>
<path id="Vector_9" d="M158.762 118.01C157.852 118.009 156.978 117.647 156.335 117.003C155.691 116.359 155.328 115.486 155.327 114.575C155.327 114.575 160.803 84.8641 163.932 67.4503C164.541 64.0641 166.32 60.9995 168.959 58.7922C171.598 56.5849 174.928 55.3755 178.369 55.3754C183.297 55.3754 188.022 57.3329 191.507 60.8174C194.991 64.3018 196.949 69.0278 196.949 73.9555V79.823C196.949 89.9508 192.926 99.6637 185.764 106.825C178.603 113.987 168.89 118.01 158.762 118.01Z" fill="#227CBF"/>
<path id="Vector_10" d="M184.763 115.036C184.552 115.497 184.212 115.887 183.784 116.159C183.356 116.431 182.859 116.574 182.352 116.57L176.388 116.518C176.043 116.515 175.702 116.444 175.384 116.31C175.067 116.175 174.779 115.979 174.537 115.733C174.295 115.487 174.104 115.196 173.975 114.876C173.846 114.556 173.781 114.214 173.784 113.869L174.189 67.1436C174.195 66.4068 174.346 65.6784 174.634 65.0001C174.921 64.3217 175.34 63.7066 175.865 63.19C176.39 62.6734 177.012 62.2654 177.696 61.9893C178.379 61.7131 179.109 61.5743 179.846 61.5807C180.583 61.587 181.311 61.7385 181.989 62.0265C182.668 62.3144 183.282 62.7332 183.799 63.2588C184.315 63.7845 184.723 64.4067 184.999 65.0899C185.274 65.7732 185.413 66.5041 185.406 67.2408L185.001 113.966C184.998 114.335 184.917 114.7 184.763 115.036Z" fill="#47B65C"/>
<path id="Vector_11" d="M187.398 102.562C187.187 103.023 186.847 103.413 186.419 103.685C185.991 103.958 185.494 104.1 184.986 104.096L174.799 104.008C174.103 104.001 173.438 103.718 172.95 103.222C172.462 102.725 172.191 102.055 172.196 101.359L172.529 62.9906C172.532 62.6456 172.602 62.3047 172.737 61.9871C172.872 61.6696 173.068 61.3817 173.314 61.14C173.56 60.8982 173.851 60.7072 174.171 60.578C174.491 60.4488 174.833 60.3838 175.178 60.3868L185.365 60.4751C185.71 60.4781 186.051 60.549 186.368 60.6837C186.686 60.8185 186.973 61.0145 187.215 61.2605C187.457 61.5065 187.648 61.7977 187.777 62.1175C187.906 62.4373 187.971 62.7795 187.968 63.1244L187.636 101.493C187.633 101.862 187.552 102.226 187.398 102.562Z" fill="#227CBF"/>
<path id="Vector_12" d="M170.357 17.4167C167.146 17.9618 163.56 18.5851 160.5 17.0958C158.091 15.9236 156.435 13.5824 157.021 10.8316C158.189 5.35713 164.456 2.9368 169.493 3.42523C172.455 3.70178 175.241 4.95768 177.409 6.9944C177.512 7.09186 177.641 7.15744 177.78 7.18323C177.919 7.20901 178.063 7.19389 178.194 7.13969C178.325 7.08548 178.437 6.99452 178.517 6.87781C178.598 6.76109 178.642 6.62362 178.646 6.48203C178.625 4.46193 180.136 2.77624 181.927 2.01529C184.169 1.06255 186.774 1.40302 189.079 1.91286C195.383 3.31898 201.11 6.61453 205.493 11.3597C209.876 16.1049 212.708 22.074 213.61 28.4705C214.252 32.9735 213.908 37.5622 212.602 41.9192C211.379 45.9354 209.121 49.9721 205.404 52.1572C202.055 54.1262 197.184 54.6333 194.093 51.8708C191.617 49.658 190.501 45.5214 192.532 42.6587C193.131 41.8285 193.943 41.1758 194.882 40.7697C195.821 40.3635 196.853 40.2192 197.868 40.3519C198.828 40.5036 199.724 40.9274 200.45 41.5731C201.176 42.2188 201.701 43.0593 201.964 43.9947C202.157 44.893 202.097 45.827 201.792 46.6936C201.487 47.5601 200.948 48.3253 200.235 48.9046C199.702 49.2876 199.097 49.5581 198.456 49.6995C197.815 49.841 197.152 49.8504 196.507 49.7274C195.862 49.6043 195.249 49.3512 194.706 48.9836C194.162 48.616 193.699 48.1416 193.344 47.5891C192.852 46.7993 191.598 47.526 192.093 48.3206C192.662 49.2099 193.441 49.9454 194.361 50.4618C195.282 50.9782 196.316 51.2596 197.371 51.2811C198.423 51.3003 199.461 51.0396 200.379 50.5255C201.297 50.0115 202.062 49.2626 202.595 48.3557C203.167 47.4302 203.485 46.3705 203.517 45.2831C203.549 44.1956 203.294 43.1189 202.778 42.1613C202.214 41.1846 201.41 40.3679 200.442 39.7884C199.474 39.2089 198.375 38.8857 197.247 38.8493C196.078 38.8402 194.923 39.1156 193.884 39.6518C192.845 40.188 191.951 40.9689 191.281 41.9273C190.196 43.5856 189.796 45.5995 190.165 47.5465C190.491 49.5266 191.45 51.3479 192.897 52.7382C194.572 54.2547 196.729 55.1318 198.987 55.2151C203.9 55.4954 208.287 52.6646 210.997 48.7298C213.809 44.6468 215.067 39.5233 215.32 34.625C215.578 29.6325 214.707 24.6461 212.771 20.0368C210.835 15.4276 207.885 11.3144 204.14 8.0032C200.577 4.88532 196.399 2.551 191.877 1.15164C187.4 -0.219694 181.15 -1.21929 178.127 3.35482C177.512 4.28107 177.188 5.37022 177.197 6.48207L178.434 5.96971C174.06 1.78996 167.184 0.73379 161.722 3.30304C158.979 4.59349 156.601 6.99309 155.748 9.95176C154.863 13.0216 156.143 16.0347 158.767 17.7757C162.337 20.1452 166.766 19.4891 170.742 18.8142C171.66 18.6584 171.271 17.2616 170.357 17.4167Z" fill="#227CBF"/>
<path id="Vector_13" d="M125.041 106.493H7.69297C5.822 106.491 4.02826 105.747 2.70528 104.424C1.3823 103.101 0.638121 101.307 0.635986 99.4364V29.2699C0.638121 27.3989 1.3823 25.6052 2.70528 24.2822C4.02826 22.9592 5.822 22.215 7.69297 22.2129H125.041C126.911 22.215 128.705 22.9592 130.028 24.2822C131.351 25.6052 132.095 27.3989 132.098 29.2699V99.4364C132.095 101.307 131.351 103.101 130.028 104.424C128.705 105.747 126.911 106.491 125.041 106.493ZM7.69297 23.4227C6.14274 23.4244 4.65651 24.0411 3.56033 25.1372C2.46415 26.2334 1.84754 27.7196 1.84575 29.2699V99.4364C1.84754 100.987 2.46415 102.473 3.56033 103.569C4.65651 104.665 6.14274 105.282 7.69297 105.284H125.041C126.591 105.282 128.077 104.665 129.173 103.569C130.269 102.473 130.886 100.987 130.888 99.4364V29.2699C130.886 27.7196 130.269 26.2334 129.173 25.1372C128.077 24.0411 126.591 23.4244 125.041 23.4227H7.69297Z" fill="#808080"/>
<path id="Vector_14" d="M23.4201 38.7464C22.4231 38.7464 21.4486 38.4508 20.6196 37.8969C19.7907 37.343 19.1446 36.5558 18.7631 35.6347C18.3816 34.7137 18.2818 33.7001 18.4763 32.7223C18.6707 31.7445 19.1508 30.8464 19.8558 30.1414C20.5607 29.4365 21.4589 28.9564 22.4367 28.7619C23.4145 28.5674 24.428 28.6672 25.3491 29.0487C26.2702 29.4303 27.0574 30.0763 27.6113 30.9053C28.1652 31.7342 28.4608 32.7088 28.4608 33.7057C28.4593 35.0422 27.9277 36.3234 26.9828 37.2684C26.0378 38.2134 24.7565 38.7449 23.4201 38.7464ZM23.4201 29.8748C22.6624 29.8748 21.9217 30.0995 21.2917 30.5204C20.6618 30.9414 20.1707 31.5397 19.8808 32.2397C19.5908 32.9397 19.515 33.71 19.6628 34.4531C19.8106 35.1962 20.1755 35.8789 20.7112 36.4146C21.247 36.9504 21.9296 37.3152 22.6727 37.4631C23.4159 37.6109 24.1861 37.535 24.8861 37.2451C25.5862 36.9551 26.1845 36.4641 26.6054 35.8341C27.0264 35.2041 27.251 34.4634 27.251 33.7057C27.2499 32.6901 26.8459 31.7163 26.1277 30.9981C25.4095 30.2799 24.4358 29.876 23.4201 29.8748Z" fill="#808080"/>
<path id="Vector_15" d="M108.507 38.7464C107.51 38.7464 106.535 38.4508 105.707 37.8969C104.878 37.343 104.232 36.5558 103.85 35.6347C103.468 34.7137 103.369 33.7001 103.563 32.7223C103.758 31.7445 104.238 30.8464 104.943 30.1414C105.648 29.4365 106.546 28.9564 107.524 28.7619C108.501 28.5674 109.515 28.6672 110.436 29.0487C111.357 29.4303 112.144 30.0763 112.698 30.9053C113.252 31.7342 113.548 32.7088 113.548 33.7057C113.546 35.0422 113.015 36.3234 112.07 37.2684C111.125 38.2134 109.843 38.7449 108.507 38.7464ZM108.507 29.8748C107.749 29.8748 107.009 30.0995 106.379 30.5204C105.749 30.9414 105.258 31.5397 104.968 32.2397C104.678 32.9397 104.602 33.71 104.75 34.4531C104.898 35.1962 105.262 35.8789 105.798 36.4146C106.334 36.9504 107.016 37.3152 107.76 37.4631C108.503 37.6109 109.273 37.535 109.973 37.2451C110.673 36.9551 111.271 36.4641 111.692 35.8341C112.113 35.2041 112.338 34.4634 112.338 33.7057C112.337 32.6901 111.933 31.7163 111.215 30.9981C110.496 30.2799 109.523 29.876 108.507 29.8748Z" fill="#808080"/>
<path id="Vector_16" d="M35.3161 69.3938H13.5402C12.6315 69.3927 11.7603 69.0313 11.1177 68.3887C10.4751 67.7461 10.1136 66.8749 10.1125 65.9662V53.062C10.1136 52.1532 10.4751 51.282 11.1177 50.6394C11.7603 49.9968 12.6315 49.6354 13.5402 49.6343H35.3161C36.2248 49.6354 37.096 49.9968 37.7386 50.6394C38.3812 51.282 38.7427 52.1532 38.7437 53.062V65.9662C38.7427 66.8749 38.3812 67.7461 37.7386 68.3887C37.096 69.0313 36.2248 69.3927 35.3161 69.3938Z" fill="white"/>
<path id="Vector_17" d="M77.2545 69.3938H55.4787C54.57 69.3927 53.6987 69.0313 53.0562 68.3887C52.4136 67.7461 52.0521 66.8749 52.051 65.9662V53.062C52.0521 52.1532 52.4136 51.282 53.0562 50.6394C53.6987 49.9968 54.57 49.6354 55.4787 49.6343H77.2545C78.1633 49.6354 79.0345 49.9968 79.6771 50.6394C80.3197 51.282 80.6811 52.1532 80.6822 53.062V65.9662C80.6811 66.8749 80.3197 67.7461 79.6771 68.3887C79.0345 69.0313 78.1633 69.3927 77.2545 69.3938Z" fill="white"/>
<path id="Vector_18" d="M97.4175 50.0375C96.6156 50.0384 95.8469 50.3573 95.2799 50.9243C94.7129 51.4913 94.3939 52.26 94.3931 53.0619V65.9661C94.3939 66.768 94.7129 67.5367 95.2799 68.1037C95.8469 68.6707 96.6156 68.9896 97.4175 68.9905H119.193C119.995 68.9896 120.764 68.6707 121.331 68.1037C121.898 67.5367 122.217 66.768 122.218 65.9661V53.0619C122.217 52.26 121.898 51.4913 121.331 50.9243C120.764 50.3573 119.995 50.0384 119.193 50.0375H97.4175Z" fill="white"/>
<path id="Vector_19" d="M35.5177 95.2022H13.7419C12.8331 95.2011 11.9619 94.8396 11.3193 94.197C10.6768 93.5545 10.3153 92.6832 10.3142 91.7745V78.8703C10.3153 77.9616 10.6768 77.0903 11.3193 76.4478C11.9619 75.8052 12.8331 75.4437 13.7419 75.4426H35.5177C36.4265 75.4437 37.2977 75.8052 37.9403 76.4478C38.5828 77.0903 38.9443 77.9616 38.9454 78.8703V91.7745C38.9443 92.6832 38.5828 93.5545 37.9403 94.197C37.2977 94.8396 36.4265 95.2011 35.5177 95.2022Z" fill="white"/>
<path id="Vector_20" d="M77.4562 95.2022H55.6804C54.7716 95.2011 53.9004 94.8396 53.2578 94.197C52.6152 93.5545 52.2538 92.6832 52.2527 91.7745V78.8703C52.2538 77.9616 52.6152 77.0903 53.2578 76.4478C53.9004 75.8052 54.7716 75.4437 55.6804 75.4426H77.4562C78.3649 75.4437 79.2362 75.8052 79.8787 76.4478C80.5213 77.0903 80.8828 77.9616 80.8839 78.8703V91.7745C80.8828 92.6832 80.5213 93.5545 79.8787 94.197C79.2362 94.8396 78.3649 95.2011 77.4562 95.2022Z" fill="white"/>
<path id="Vector_21" d="M119.395 95.2022H97.6191C96.7103 95.2011 95.8391 94.8396 95.1965 94.197C94.554 93.5545 94.1925 92.6832 94.1914 91.7745V78.8703C94.1925 77.9616 94.554 77.0903 95.1965 76.4478C95.8391 75.8052 96.7103 75.4437 97.6191 75.4426H119.395C120.304 75.4437 121.175 75.8052 121.817 76.4478C122.46 77.0903 122.822 77.9616 122.823 78.8703V91.7745C122.822 92.6832 122.46 93.5545 121.817 94.197C121.175 94.8396 120.304 95.2011 119.395 95.2022Z" fill="white"/>
<path id="Vector_22" d="M23.4199 35.1169C23.0458 35.1165 22.687 34.9677 22.4224 34.7031C22.1578 34.4385 22.009 34.0797 22.0085 33.7056V13.5427C22.0085 13.1684 22.1572 12.8094 22.4219 12.5447C22.6866 12.28 23.0456 12.1313 23.4199 12.1313C23.7943 12.1313 24.1533 12.28 24.4179 12.5447C24.6826 12.8094 24.8313 13.1684 24.8313 13.5427V33.7056C24.8309 34.0797 24.682 34.4385 24.4174 34.7031C24.1529 34.9677 23.7941 35.1165 23.4199 35.1169Z" fill="#808080"/>
<path id="Vector_23" d="M108.507 35.1169C108.133 35.1165 107.774 34.9677 107.51 34.7031C107.245 34.4385 107.096 34.0797 107.096 33.7056V13.5427C107.096 13.1684 107.244 12.8094 107.509 12.5447C107.774 12.28 108.133 12.1313 108.507 12.1313C108.881 12.1313 109.24 12.28 109.505 12.5447C109.77 12.8094 109.918 13.1684 109.918 13.5427V33.7056C109.918 34.0797 109.769 34.4385 109.505 34.7031C109.24 34.9677 108.881 35.1165 108.507 35.1169Z" fill="#808080"/>
<path id="Path 395" d="M23.6048 64.7448C23.0111 64.7458 22.4331 64.5537 21.9581 64.1975L21.9287 64.1754L15.7263 59.4308C15.1461 58.986 14.7664 58.329 14.6707 57.6043C14.575 56.8796 14.7711 56.1465 15.2158 55.5664C15.6606 54.9862 16.3176 54.6065 17.0423 54.5108C17.767 54.4151 18.5001 54.6112 19.0802 55.0559L23.0976 58.1367L32.5909 45.7516C32.8111 45.4644 33.0856 45.2235 33.3989 45.0424C33.7121 44.8614 34.058 44.7438 34.4167 44.6965C34.7754 44.6491 35.1399 44.6728 35.4894 44.7663C35.8389 44.8598 36.1666 45.0212 36.4537 45.2414L36.4545 45.242L36.3956 45.3238L36.4561 45.242C37.0354 45.6872 37.4144 46.344 37.51 47.0684C37.6055 47.7927 37.4098 48.5254 36.9658 49.1056L25.7995 63.6666C25.5412 64.0021 25.2091 64.2736 24.8289 64.46C24.4487 64.6464 24.0306 64.7427 23.6072 64.7415L23.6048 64.7448Z" fill="#47B65C"/>
<path id="Path 395_2" d="M66.7532 90.15C66.1595 90.151 65.5815 89.959 65.1065 89.6028L65.0771 89.5807L58.8747 84.8361C58.2946 84.3913 57.9149 83.7343 57.8192 83.0096C57.7234 82.2849 57.9195 81.5518 58.3643 80.9717C58.809 80.3915 59.466 80.0118 60.1908 79.9161C60.9155 79.8204 61.6485 80.0165 62.2287 80.4612L66.2461 83.5419L75.7394 71.1569C75.9595 70.8697 76.234 70.6287 76.5473 70.4477C76.8605 70.2667 77.2064 70.1491 77.5651 70.1017C77.9238 70.0543 78.2883 70.0781 78.6378 70.1716C78.9873 70.2651 79.315 70.4265 79.6021 70.6466L79.603 70.6472L79.544 70.729L79.6046 70.6472C80.1839 71.0924 80.5629 71.7493 80.6584 72.4736C80.754 73.198 80.5582 73.9306 80.1142 74.5108L68.948 89.0719C68.6896 89.4074 68.3575 89.6789 67.9773 89.8653C67.5971 90.0517 67.1791 90.148 66.7556 90.1468L66.7532 90.15Z" fill="#47B65C"/>
<path id="Path 395_3" d="M107.482 64.7448C106.889 64.7458 106.311 64.5537 105.836 64.1975L105.806 64.1754L99.6037 59.4308C99.0236 58.986 98.6439 58.329 98.5482 57.6043C98.4524 56.8796 98.6485 56.1465 99.0933 55.5664C99.538 54.9862 100.195 54.6065 100.92 54.5108C101.644 54.4151 102.378 54.6112 102.958 55.0559L106.975 58.1367L116.468 45.7516C116.689 45.4644 116.963 45.2235 117.276 45.0424C117.59 44.8614 117.935 44.7438 118.294 44.6965C118.653 44.6491 119.017 44.6728 119.367 44.7663C119.716 44.8598 120.044 45.0212 120.331 45.2414L120.332 45.242L120.273 45.3238L120.334 45.242C120.913 45.6872 121.292 46.344 121.387 47.0684C121.483 47.7927 121.287 48.5254 120.843 49.1056L109.677 63.6666C109.419 64.0021 109.087 64.2736 108.706 64.46C108.326 64.6464 107.908 64.7427 107.485 64.7415L107.482 64.7448Z" fill="#47B65C"/>
</g>
<defs>
<clipPath id="clip0_2317_3612">
<rect width="214.728" height="157.008" fill="white" transform="translate(0.635986)"/>
</clipPath>
</defs>
</svg>
